<svg data-v-1084b650="" xmlns="http://www.w3.org/2000/svg" viewBox="0 0 300 300"><!----> <!----> <rect data-v-1084b650="" fill="#EADEFA" x="0" y="0" width="300px" height="300px" class="logo-background-square"></rect> <!----> <g data-v-1084b650="" id="b51212d0-6418-ebe4-7780-a14ba7daaec4" fill="#23073F" transform="matrix(3.0999999046325684,0,0,3.0999999046325684,25.488500595092773,169.43235778808594)"><path d="M2.98 10.50L2.98 3.65L5.49 10.50L7.17 10.50L9.67 3.65L9.67 10.50L11.65 10.50L11.65 0.42L9.14 0.42L6.34 8.09L3.57 0.42L1.02 0.42L1.02 10.50ZM18.07 3.22L18.07 7.18C18.07 8.48 17.42 9.16 16.56 9.16C15.67 9.16 15.33 8.60 15.33 7.63L15.33 3.22L13.48 3.22L13.48 7.69C13.48 9.42 14.07 10.71 16.09 10.71C17.00 10.71 17.67 10.32 18.20 9.45L18.20 10.50L19.92 10.50L19.92 3.22ZM21.13 8.40C21.25 9.77 22.37 10.71 24.15 10.71C25.80 10.71 27.15 9.98 27.15 8.37C27.15 6.92 26.10 6.41 25.27 6.22L23.51 5.81C23.13 5.73 22.88 5.52 22.88 5.21C22.88 4.69 23.37 4.45 24.08 4.45C24.72 4.45 25.24 4.72 25.35 5.38L26.95 5.11C26.88 3.96 25.87 3.01 24.14 3.01C22.64 3.01 21.28 3.65 21.28 5.28C21.28 6.48 22.11 7.10 23.06 7.32L24.81 7.73C25.23 7.84 25.49 8.04 25.49 8.44C25.49 9.10 24.81 9.27 24.19 9.27C23.28 9.27 22.81 8.81 22.72 8.13L21.13 8.40ZM32.70 9.70C32.75 9.97 32.82 10.32 33.03 10.50L34.89 10.50C34.64 10.23 34.47 9.76 34.47 9.02L34.47 6.02C34.47 3.89 33.31 3.01 31.43 3.01C30.06 3.01 28.66 3.53 28.29 5.21L29.90 5.70C30.07 5.04 30.48 4.51 31.32 4.51C32.23 4.51 32.62 5.04 32.62 5.73L32.62 5.92C32.26 6.09 31.70 6.19 30.93 6.27C29.20 6.47 28.07 7.07 28.07 8.64C28.07 10.02 29.19 10.71 30.52 10.71C31.39 10.71 32.07 10.46 32.70 9.70ZM32.62 8.30C32.34 8.79 31.65 9.31 30.91 9.31C30.30 9.31 29.95 9.02 29.95 8.51C29.92 7.81 30.49 7.60 31.16 7.48C31.88 7.34 32.35 7.21 32.62 7.10ZM42.24 10.50L42.24 6.24L46.72 6.24L46.72 10.50L48.68 10.50L48.68 0.42L46.72 0.42L46.72 4.47L42.24 4.47L42.24 0.42L40.28 0.42L40.28 10.50ZM54.77 9.70C54.81 9.97 54.88 10.32 55.09 10.50L56.95 10.50C56.70 10.23 56.53 9.76 56.53 9.02L56.53 6.02C56.53 3.89 55.37 3.01 53.49 3.01C52.12 3.01 50.72 3.53 50.36 5.21L51.97 5.70C52.14 5.04 52.54 4.51 53.38 4.51C54.29 4.51 54.68 5.04 54.68 5.73L54.68 5.92C54.32 6.09 53.76 6.19 52.99 6.27C51.27 6.47 50.13 7.07 50.13 8.64C50.13 10.02 51.25 10.71 52.58 10.71C53.45 10.71 54.14 10.46 54.77 9.70ZM54.68 8.30C54.40 8.79 53.72 9.31 52.98 9.31C52.36 9.31 52.01 9.02 52.01 8.51C51.98 7.81 52.56 7.60 53.23 7.48C53.94 7.34 54.42 7.21 54.68 7.10ZM57.82 8.40C57.95 9.77 59.07 10.71 60.84 10.71C62.50 10.71 63.84 9.98 63.84 8.37C63.84 6.92 62.79 6.41 61.96 6.22L60.20 5.81C59.82 5.73 59.57 5.52 59.57 5.21C59.57 4.69 60.06 4.45 60.77 4.45C61.42 4.45 61.94 4.72 62.05 5.38L63.64 5.11C63.57 3.96 62.57 3.01 60.83 3.01C59.33 3.01 57.97 3.65 57.97 5.28C57.97 6.48 58.80 7.10 59.75 7.32L61.50 7.73C61.92 7.84 62.19 8.04 62.19 8.44C62.19 9.10 61.50 9.27 60.89 9.27C59.98 9.27 59.50 8.81 59.42 8.13L57.82 8.40ZM69.40 9.70C69.44 9.97 69.51 10.32 69.72 10.50L71.58 10.50C71.33 10.23 71.16 9.76 71.16 9.02L71.16 6.02C71.16 3.89 70.00 3.01 68.12 3.01C66.75 3.01 65.35 3.53 64.99 5.21L66.60 5.70C66.77 5.04 67.17 4.51 68.01 4.51C68.92 4.51 69.31 5.04 69.31 5.73L69.31 5.92C68.95 6.09 68.39 6.19 67.62 6.27C65.90 6.47 64.76 7.07 64.76 8.64C64.76 10.02 65.88 10.71 67.21 10.71C68.08 10.71 68.77 10.46 69.40 9.70ZM69.31 8.30C69.03 8.79 68.35 9.31 67.61 9.31C66.99 9.31 66.64 9.02 66.64 8.51C66.61 7.81 67.19 7.60 67.86 7.48C68.57 7.34 69.05 7.21 69.31 7.10ZM74.72 10.50L74.72 6.54C74.72 5.24 75.38 4.56 76.23 4.56C77.13 4.56 77.46 5.12 77.46 6.09L77.46 10.50L79.31 10.50L79.31 6.03C79.31 4.30 78.72 3.01 76.71 3.01C75.80 3.01 75.12 3.37 74.59 4.27L74.59 3.22L72.87 3.22L72.87 10.50Z"></path></g> <linearGradient data-v-1084b650="" gradientTransform="rotate(25)" id="89a10a0f-f168-40bd-b43d-ac0e8116103a" x1="0%" y1="0%" x2="100%" y2="0%"><stop data-v-1084b650="" offset="0%" style="stop-color: rgb(233, 13, 202); stop-opacity: 1;"></stop> <stop data-v-1084b650="" offset="100%" style="stop-color: rgb(21, 54, 241); stop-opacity: 1;"></stop></linearGradient> <g data-v-1084b650="" id="572af610-de3c-4eb8-948c-9023d2577cf5" fill="url(#89a10a0f-f168-40bd-b43d-ac0e8116103a)" stroke="none" transform="matrix(0.2617175877094269,0,0,0.2617175877094269,110.74236297607422,90.0085220336914)"><svg xmlns="http://www.w3.org/2000/svg" xmlns:xlink="http://www.w3.org/1999/xlink" version="1.1" x="0px" y="0px" viewBox="0 0 100 100" enable-background="new 0 0 100 100" xml:space="preserve"><g><g><path d="M70.112,18.125l-1.167-0.544l1.86-3.997c0.291-0.618,0.025-1.353-0.593-1.643l-5.264-2.453    c-0.297-0.136-0.636-0.154-0.945-0.043c-0.309,0.117-0.562,0.346-0.698,0.643l-1.86,3.997l-1.168-0.544    c-0.618-0.291-1.353-0.025-1.643,0.593l-5.752,12.332L31.374,72.587c-0.006,0.019-0.012,0.043-0.025,0.062    c-0.012,0.037-0.025,0.074-0.037,0.111c-0.018,0.068-0.031,0.142-0.043,0.216c0,0.006-0.006,0.012,0,0.025l-1.606,16.267    c-0.056,0.525,0.228,1.02,0.704,1.242c0.167,0.08,0.346,0.118,0.525,0.118c0.321,0,0.643-0.13,0.884-0.371l11.356-11.615    c0.025-0.025,0.056-0.049,0.081-0.08c0.056-0.056,0.105-0.124,0.154-0.185c0.031-0.049,0.062-0.105,0.086-0.161l0.025-0.056    l21.476-46.053l5.752-12.338c0.142-0.297,0.154-0.636,0.043-0.945C70.637,18.515,70.408,18.261,70.112,18.125z M65.021,12.25    l3.021,1.409l-0.889,1.915l-3.021-1.409L65.021,12.25z M32.468,86.012l1.087-11.047l6.673,3.114L32.468,86.012z M62.71,31.063    L41.735,76.047l-7.593-3.534L55.123,27.51l5.227-11.207l7.593,3.54L62.71,31.063z"></path></g></g><g><g><path d="M24.401,61.299c-0.25,0-0.503-0.076-0.721-0.233L5.513,47.978C5.191,47.746,5,47.372,5,46.975    c0-0.397,0.191-0.77,0.513-1.002L23.68,32.885c0.554-0.399,1.326-0.273,1.725,0.28c0.399,0.554,0.273,1.326-0.281,1.725    L8.35,46.975L25.125,59.06c0.554,0.399,0.679,1.171,0.281,1.725C25.163,61.12,24.785,61.299,24.401,61.299z"></path></g></g><g><g><path fill="#000000" d="M75.598,61.299c-0.384,0-0.762-0.178-1.004-0.513c-0.399-0.554-0.273-1.326,0.281-1.725L91.65,46.975    L74.875,34.89c-0.554-0.399-0.679-1.171-0.281-1.725c0.399-0.554,1.17-0.68,1.725-0.28l18.167,13.088    C94.809,46.205,95,46.578,95,46.975c0,0.397-0.191,0.77-0.513,1.002L76.319,61.065C76.101,61.223,75.848,61.299,75.598,61.299z"></path></g></g></svg></g></svg>